<svg width="296" height="85" viewBox="0 0 296 85" fill="none" xmlns="http://www.w3.org/2000/svg">
<path d="M215.076 67.6368V69.4838H207.77V67.6368H215.076Z" fill="#FFC700"/>
<path d="M228.704 63.036L224.073 75.9315H222.115L217.484 63.036H219.571L223.029 73.3121H223.159L226.617 63.036H228.704Z" fill="#FFC700"/>
<path d="M236.047 76.2002C234.841 76.2002 233.8 75.9259 232.924 75.3774C232.054 74.8233 231.383 74.0509 230.91 73.0603C230.443 72.064 230.209 70.9054 230.209 69.5845C230.209 68.2636 230.443 67.0994 230.91 66.092C231.383 65.0789 232.041 64.2897 232.884 63.7244C233.732 63.1536 234.721 62.8681 235.852 62.8681C236.504 62.8681 237.148 62.98 237.784 63.2039C238.42 63.4278 238.999 63.7916 239.521 64.2953C240.043 64.7935 240.459 65.4539 240.769 66.2767C241.079 67.0994 241.234 68.1125 241.234 69.3159V70.1554H231.579V68.4427H239.277C239.277 67.7151 239.135 67.0659 238.853 66.495C238.575 65.9241 238.179 65.4735 237.662 65.1433C237.151 64.8131 236.548 64.648 235.852 64.648C235.085 64.648 234.422 64.8439 233.862 65.2356C233.308 65.6218 232.881 66.1256 232.582 66.7468C232.283 67.3681 232.133 68.0341 232.133 68.745V69.8868C232.133 70.8606 232.296 71.6862 232.623 72.3634C232.954 73.0351 233.414 73.5472 234.001 73.8998C234.588 74.2468 235.27 74.4203 236.047 74.4203C236.553 74.4203 237.01 74.3476 237.417 74.2021C237.831 74.0509 238.187 73.8271 238.486 73.5304C238.785 73.2282 239.016 72.8532 239.179 72.4054L241.038 72.9427C240.842 73.592 240.513 74.1629 240.051 74.6554C239.589 75.1424 239.018 75.523 238.339 75.7972C237.659 76.0659 236.896 76.2002 236.047 76.2002Z" fill="#FFC700"/>
<path d="M244.161 75.9315V63.036H246.021V64.9838H246.151C246.379 64.3457 246.792 63.828 247.39 63.4306C247.988 63.0332 248.663 62.8345 249.413 62.8345C249.554 62.8345 249.731 62.8373 249.943 62.8429C250.155 62.8485 250.315 62.8569 250.424 62.8681V64.883C250.359 64.8662 250.209 64.8411 249.975 64.8075C249.747 64.7683 249.505 64.7487 249.25 64.7487C248.641 64.7487 248.097 64.8802 247.619 65.1433C247.146 65.4008 246.771 65.759 246.493 66.2179C246.222 66.6713 246.086 67.189 246.086 67.7711V75.9315H244.161Z" fill="#FFC700"/>
<path d="M261.577 65.9241L259.849 66.4278C259.74 66.1312 259.58 65.8429 259.367 65.5631C259.161 65.2776 258.878 65.0425 258.519 64.8578C258.161 64.6731 257.701 64.5808 257.141 64.5808C256.375 64.5808 255.736 64.7627 255.225 65.1265C254.719 65.4847 254.467 65.9409 254.467 66.495C254.467 66.9875 254.641 67.3765 254.988 67.6619C255.336 67.9474 255.88 68.1853 256.619 68.3756L258.479 68.8457C259.599 69.1256 260.433 69.5537 260.982 70.1302C261.531 70.7011 261.806 71.4371 261.806 72.3383C261.806 73.0771 261.599 73.7375 261.186 74.3196C260.778 74.9017 260.207 75.3606 259.474 75.6965C258.74 76.0323 257.886 76.2002 256.913 76.2002C255.635 76.2002 254.578 75.9147 253.741 75.3439C252.904 74.773 252.374 73.939 252.151 72.842L253.977 72.3718C254.151 73.0659 254.48 73.5864 254.964 73.9334C255.453 74.2804 256.092 74.4539 256.88 74.4539C257.777 74.4539 258.49 74.258 259.017 73.8662C259.55 73.4689 259.816 72.9931 259.816 72.439C259.816 71.9912 259.664 71.6162 259.359 71.314C259.055 71.0062 258.587 70.7767 257.957 70.6256L255.869 70.1218C254.722 69.842 253.879 69.4082 253.341 68.8205C252.809 68.2272 252.542 67.4856 252.542 66.5957C252.542 65.8681 252.741 65.2244 253.137 64.6647C253.54 64.105 254.086 63.6657 254.776 63.3466C255.472 63.0276 256.261 62.8681 257.141 62.8681C258.381 62.8681 259.354 63.148 260.061 63.7077C260.773 64.2674 261.278 65.0062 261.577 65.9241Z" fill="#FFC700"/>
<path d="M264.703 75.9315V63.036H266.627V75.9315H264.703ZM265.681 60.8868C265.306 60.8868 264.983 60.7552 264.711 60.4922C264.444 60.2291 264.311 59.9129 264.311 59.5435C264.311 59.1741 264.444 58.8578 264.711 58.5948C264.983 58.3317 265.306 58.2002 265.681 58.2002C266.056 58.2002 266.377 58.3317 266.643 58.5948C266.915 58.8578 267.051 59.1741 267.051 59.5435C267.051 59.9129 266.915 60.2291 266.643 60.4922C266.377 60.7552 266.056 60.8868 265.681 60.8868Z" fill="#FFC700"/>
<path d="M275.24 76.2002C274.11 76.2002 273.117 75.9231 272.264 75.369C271.416 74.8149 270.753 74.0397 270.274 73.0435C269.801 72.0472 269.565 70.883 269.565 69.5509C269.565 68.2077 269.801 67.0351 270.274 66.0332C270.753 65.0314 271.416 64.2534 272.264 63.6993C273.117 63.1452 274.11 62.8681 275.24 62.8681C276.371 62.8681 277.361 63.1452 278.209 63.6993C279.062 64.2534 279.725 65.0314 280.198 66.0332C280.677 67.0351 280.916 68.2077 280.916 69.5509C280.916 70.883 280.677 72.0472 280.198 73.0435C279.725 74.0397 279.062 74.8149 278.209 75.369C277.361 75.9231 276.371 76.2002 275.24 76.2002ZM275.24 74.4203C276.099 74.4203 276.806 74.1937 277.361 73.7403C277.915 73.2869 278.325 72.6909 278.592 71.9521C278.858 71.2133 278.991 70.4129 278.991 69.5509C278.991 68.689 278.858 67.8858 278.592 67.1414C278.325 66.397 277.915 65.7953 277.361 65.3364C276.806 64.8774 276.099 64.648 275.24 64.648C274.381 64.648 273.675 64.8774 273.12 65.3364C272.566 65.7953 272.155 66.397 271.889 67.1414C271.622 67.8858 271.489 68.689 271.489 69.5509C271.489 70.4129 271.622 71.2133 271.889 71.9521C272.155 72.6909 272.566 73.2869 273.12 73.7403C273.675 74.1937 274.381 74.4203 275.24 74.4203Z" fill="#FFC700"/>
<path d="M285.778 68.1741V75.9315H283.854V63.036H285.713V65.0509H285.876C286.169 64.3961 286.615 63.87 287.213 63.4726C287.811 63.0696 288.583 62.8681 289.529 62.8681C290.377 62.8681 291.119 63.0472 291.755 63.4054C292.391 63.758 292.886 64.2953 293.239 65.0174C293.593 65.7338 293.77 66.6405 293.77 67.7375V75.9315H291.845V67.8718C291.845 66.8588 291.59 66.0696 291.079 65.5043C290.568 64.9334 289.866 64.648 288.975 64.648C288.36 64.648 287.811 64.7851 287.327 65.0593C286.849 65.3336 286.471 65.7338 286.194 66.2599C285.917 66.786 285.778 67.4241 285.778 68.1741Z" fill="#FFC700"/>
<path d="M194.089 73.1434C194.259 75.7474 194.497 77.689 194.814 79.2311C195.057 80.3687 195.179 81.1272 195.179 81.5822C195.179 82.6693 194.789 83.2002 193.986 83.2002C193.183 83.2002 192.77 82.644 192.77 81.5569C192.77 81.1524 192.843 80.2929 192.964 79.0036C193.281 76.0963 193.427 73.3406 193.427 70.7367V68.689L193.378 65.3772L193.329 63.38C193.329 61.7114 193.524 60.3715 193.938 59.3856C194.351 58.3996 195.008 57.5906 195.958 57.0345C196.907 56.4783 197.807 56.2002 198.659 56.2002C199.778 56.2002 200.752 56.6047 201.531 57.3884C202.309 58.1721 202.699 59.1833 202.699 60.3968C202.699 62.217 201.628 63.6833 199.486 64.8463C200.557 65.2255 201.555 65.9333 202.431 66.9446C203.307 67.9558 203.77 69.2199 203.77 70.762C203.77 71.9755 203.404 73.1637 202.65 74.3266C201.896 75.4895 200.752 76.071 199.17 76.071C197.077 76.071 195.427 75.1912 194.089 73.1434ZM194.059 71.8744C195.374 73.4418 196.785 74.2255 198.245 74.2255C199.462 74.2255 200.435 73.6946 201.214 72.6581C201.993 71.6215 202.358 70.5345 202.358 69.4474C202.358 68.4867 201.993 67.6777 201.263 67.0457C200.533 66.4137 199.754 66.085 198.951 66.085C198.829 66.085 198.61 66.1103 198.294 66.1861C198.075 66.2367 197.904 66.2367 197.734 66.2367C197.369 66.2367 197.077 66.1356 196.834 65.9333C196.59 65.7311 196.469 65.4783 196.469 65.1749C196.469 64.9221 196.566 64.6946 196.761 64.5176C196.955 64.3154 197.223 64.2142 197.564 64.2142C197.783 64.2142 198.051 64.2901 198.367 64.4418C198.513 64.4923 198.635 64.5429 198.732 64.5429C199.073 64.5429 199.584 64.012 200.192 62.9755C200.825 61.9137 201.141 60.8772 201.141 59.8406C201.141 58.2227 200.46 57.3884 199.073 57.3884C197.539 57.3884 196.323 58.3238 195.447 60.2199C194.57 62.1159 194.132 64.4165 194.132 67.1468L194.059 71.2423L194.059 71.8744Z" fill="#FFC700"/>
<path d="M25.7626 45.92C25.7153 47.4691 25.1707 48.6309 24.1288 49.4055C23.1343 50.18 21.9741 50.5673 20.6481 50.5673C19.3695 50.5217 18.2329 50.1117 17.2385 49.3371C16.2913 48.517 15.8178 47.3324 15.8178 45.7834C15.8651 44.371 15.8414 37.9241 15.7467 26.4426C15.6994 20.2919 15.7941 15.1435 16.0309 10.9974C12.2423 10.9974 9.04578 11.0202 6.44118 11.0658C4.83106 11.0658 3.59979 10.6101 2.74737 9.69892C1.94231 8.74214 1.51611 7.64867 1.46875 6.41852C1.46875 5.14281 1.87128 4.02656 2.67634 3.06978C3.4814 2.06743 4.68899 1.54348 6.29911 1.49792C7.48302 1.49792 9.04578 1.49792 10.9874 1.49792C12.9764 1.45236 15.1311 1.42958 17.4516 1.42958C19.8194 1.38402 22.1635 1.36124 24.484 1.36124C26.8518 1.36124 29.0065 1.36124 30.9481 1.36124C32.9371 1.36124 34.5236 1.36124 35.7075 1.36124C37.0334 1.36124 38.0753 1.68016 38.833 2.31802C39.6381 2.95587 40.1827 3.75319 40.4668 4.70998C40.7509 5.66676 40.7746 6.62355 40.5378 7.58033C40.301 8.53711 39.8038 9.33443 39.0461 9.97229C38.2884 10.6101 37.2702 10.9291 35.9916 10.9291C33.0082 10.9291 29.6695 10.9519 25.9757 10.9974C25.7389 14.9612 25.6442 20.0869 25.6916 26.3743C25.7863 37.9924 25.81 44.5076 25.7626 45.92Z" fill="#7B00FF"/>
<path d="M42.5362 45.9884C42.3942 36.3294 42.4652 27.2855 42.7493 18.8567C42.7967 17.581 43.1519 16.5787 43.8149 15.8497C44.5252 15.1207 45.3776 14.6651 46.3721 14.4828C47.3666 14.255 48.3611 14.3006 49.3556 14.6195C50.3501 14.8929 51.1551 15.4168 51.7707 16.1914C52.4337 16.9659 52.7416 17.9911 52.6942 19.2668C52.4101 27.7867 52.339 36.6483 52.4811 45.8517C52.4811 47.4008 51.9838 48.5854 50.9894 49.4055C50.0422 50.18 48.9057 50.59 47.5797 50.6356C46.3011 50.6356 45.1408 50.2483 44.099 49.4738C43.1045 48.6993 42.5836 47.5375 42.5362 45.9884ZM50.9894 2.59139C51.9365 3.45705 52.4574 4.41383 52.5521 5.46174C52.6468 6.46408 52.4337 7.42087 51.9128 8.33209C51.3919 9.19775 50.6579 9.90395 49.7107 10.4507C48.811 10.9519 47.8165 11.1569 46.7273 11.0658C45.6854 10.9746 44.691 10.4735 43.7438 9.56224C42.7967 8.65102 42.2758 7.67145 42.1811 6.62354C42.0864 5.57564 42.2995 4.61885 42.8204 3.75319C43.3887 2.88753 44.1227 2.20411 45.0224 1.70294C45.9222 1.15621 46.893 0.928403 47.9349 1.01953C49.0241 1.11065 50.0422 1.6346 50.9894 2.59139Z" fill="#7B00FF"/>
<path d="M82.9633 50.3622C80.7849 51.0912 78.6539 51.3646 76.5702 51.1823C74.4865 51.0001 72.4738 50.5445 70.5322 49.8155C68.4959 49.041 66.649 47.9019 64.9915 46.3984C63.3814 44.8949 62.0554 43.1864 61.0136 41.2728C59.9717 39.3137 59.3561 37.2634 59.1667 35.122C58.9772 32.4339 59.4271 29.7003 60.5163 26.921C61.6529 24.0962 63.2393 21.6815 65.2757 19.6768C66.7437 18.2189 68.4012 17.0343 70.2481 16.123C72.0476 15.2574 74.1076 14.7106 76.4281 14.4828C78.7486 14.255 81.0927 14.6423 83.4605 15.6447C84.7392 16.1458 86.0888 16.9659 87.5095 18.105C87.6042 18.1961 87.912 18.4694 88.433 18.9251L89.7116 19.9502C90.7534 20.7247 91.3691 21.5904 91.5585 22.5472C91.7479 23.504 91.6295 24.4152 91.2033 25.2808C90.8245 26.1465 90.2325 26.8755 89.4275 27.4678C88.6224 28.0601 87.6989 28.379 86.6571 28.4246C85.6626 28.4246 84.6445 28.0373 83.6026 27.2627C83.5079 27.2172 82.6081 26.4882 80.9033 25.0758C80.335 24.6202 79.9088 24.3241 79.6247 24.1874C77.0674 23.185 74.6996 23.8001 72.5212 26.0326C71.3846 27.1716 70.4849 28.5157 69.8219 30.0648C69.2062 31.6138 68.9695 33.0718 69.1115 34.4386C69.2062 35.7143 69.7272 37.0356 70.6743 38.4024C71.6214 39.7237 72.8764 40.6805 74.4391 41.2728C76.0966 41.8651 77.4936 42.0929 78.6302 41.9562C79.8141 41.774 80.7612 41.3411 81.4716 40.6577C81.7084 40.4299 81.9925 39.9515 82.324 39.2225C83.3185 37.1267 83.8394 36.0333 83.8868 35.9421C84.5024 34.8487 85.2838 34.1197 86.2309 33.7552C87.178 33.3452 88.1252 33.254 89.0723 33.4818C90.0668 33.7096 90.9429 34.1425 91.7006 34.7803C92.4583 35.4182 92.9555 36.2155 93.1923 37.1723C93.4291 38.0835 93.2633 39.0859 92.695 40.1793C92.553 40.4983 92.3399 40.9539 92.0557 41.5462C91.819 42.1385 91.6059 42.5941 91.4164 42.913C90.6587 44.6443 89.759 46.0112 88.7171 47.0135C87.107 48.6081 85.1891 49.7244 82.9633 50.3622Z" fill="#7B00FF"/>
<path d="M110.79 45.92C110.742 47.4691 110.198 48.6309 109.156 49.4055C108.161 50.18 107.001 50.5673 105.675 50.5673C104.396 50.5217 103.26 50.1117 102.265 49.3371C101.318 48.517 100.845 47.3324 100.845 45.7834C100.892 44.371 100.868 37.9241 100.774 26.4426C100.726 20.2919 100.821 15.1435 101.058 10.9974C97.2693 10.9974 94.0727 11.0202 91.4681 11.0658C89.858 11.0658 88.6267 10.6101 87.7743 9.69892C86.9692 8.74214 86.543 7.64867 86.4957 6.41852C86.4957 5.14281 86.8982 4.02656 87.7033 3.06978C88.5083 2.06743 89.7159 1.54348 91.326 1.49792C92.5099 1.49792 94.0727 1.49792 96.0143 1.49792C98.0033 1.45236 100.158 1.42958 102.478 1.42958C104.846 1.38402 107.19 1.36124 109.511 1.36124C111.879 1.36124 114.033 1.36124 115.975 1.36124C117.964 1.36124 119.55 1.36124 120.734 1.36124C122.06 1.36124 123.102 1.68016 123.86 2.31802C124.665 2.95587 125.21 3.75319 125.494 4.70998C125.778 5.66676 125.802 6.62355 125.565 7.58033C125.328 8.53711 124.831 9.33443 124.073 9.97229C123.315 10.6101 122.297 10.9291 121.019 10.9291C118.035 10.9291 114.696 10.9519 111.003 10.9974C110.766 14.9612 110.671 20.0869 110.718 26.3743C110.813 37.9924 110.837 44.5076 110.79 45.92Z" fill="#23D703"/>
<path d="M133.524 50.704C131.819 50.704 129.972 50.385 127.983 49.7472C125.52 48.836 123.46 47.4919 121.803 45.715C120.193 43.8926 119.198 41.9107 118.819 39.7693C118.535 38.3569 118.393 36.99 118.393 35.6688C118.393 32.6162 119.009 29.7458 120.24 27.0577C121.945 23.2761 124.336 20.2235 127.415 17.8999C130.493 15.5763 133.997 14.4145 137.928 14.4145C139.348 14.4145 140.888 14.5967 142.545 14.9612C143.634 15.2346 144.7 15.713 145.742 16.3964H146.097L146.807 16.3281C147.991 16.3281 149.033 16.7381 149.933 17.5582C150.88 18.3783 151.424 19.3807 151.566 20.5653L152.064 25.2808C152.158 27.2855 152.277 30.7026 152.419 35.5321L152.561 39.2225C152.656 41.5006 152.727 42.9813 152.774 43.6648C152.774 44.3937 152.727 45.0772 152.632 45.715C152.443 47.0363 151.922 48.1753 151.069 49.1321C150.264 50.0433 149.199 50.5217 147.873 50.5673C146.783 50.6128 145.789 50.3622 144.889 49.8155C144.037 49.2232 143.421 48.1753 143.042 46.6718C141.953 47.9475 140.627 48.8815 139.064 49.4738C137.217 50.2028 135.371 50.6128 133.524 50.704ZM133.595 41.0678C135.015 41.0678 136.483 40.6349 137.999 39.7693C138.378 39.5415 138.804 39.1998 139.277 38.7442L140.343 37.7874L141.551 36.1472C141.835 35.8282 142.166 35.6004 142.545 35.4638C142.545 31.6366 142.427 28.4018 142.19 25.7592L141.48 25.2808L140.485 24.5291L139.846 24.119C139.088 23.9368 138.496 23.8457 138.07 23.8457C136.365 23.8457 134.708 24.4835 133.097 25.7592C131.535 27.0349 130.28 28.8118 129.333 31.0899C128.575 32.8668 128.196 34.4614 128.196 35.8738C128.196 38.3341 129.333 39.9515 131.606 40.7261C132.316 40.9539 132.979 41.0678 133.595 41.0678Z" fill="#23D703"/>
<path d="M183.192 50.3622C181.014 51.0912 178.883 51.3646 176.799 51.1823C174.716 51.0001 172.703 50.5445 170.761 49.8155C168.725 49.041 166.878 47.9019 165.221 46.3984C163.611 44.8949 162.285 43.1864 161.243 41.2728C160.201 39.3137 159.585 37.2634 159.396 35.122C159.206 32.4339 159.656 29.7003 160.745 26.921C161.882 24.0962 163.468 21.6815 165.505 19.6768C166.973 18.2189 168.63 17.0343 170.477 16.123C172.277 15.2574 174.337 14.7106 176.657 14.4828C178.978 14.255 181.322 14.6423 183.69 15.6447C184.968 16.1458 186.318 16.9659 187.739 18.105C187.833 18.1961 188.141 18.4694 188.662 18.9251L189.941 19.9502C190.983 20.7247 191.598 21.5904 191.788 22.5472C191.977 23.504 191.859 24.4152 191.432 25.2808C191.054 26.1465 190.462 26.8755 189.657 27.4678C188.852 28.0601 187.928 28.379 186.886 28.4246C185.892 28.4246 184.874 28.0373 183.832 27.2627C183.737 27.2172 182.837 26.4882 181.132 25.0758C180.564 24.6202 180.138 24.3241 179.854 24.1874C177.297 23.185 174.929 23.8001 172.75 26.0326C171.614 27.1716 170.714 28.5157 170.051 30.0648C169.435 31.6138 169.199 33.0718 169.341 34.4386C169.435 35.7143 169.956 37.0356 170.903 38.4024C171.851 39.7237 173.105 40.6805 174.668 41.2728C176.326 41.8651 177.723 42.0929 178.859 41.9562C180.043 41.774 180.99 41.3411 181.701 40.6577C181.937 40.4299 182.222 39.9515 182.553 39.2225C183.548 37.1267 184.069 36.0333 184.116 35.9421C184.731 34.8487 185.513 34.1197 186.46 33.7552C187.407 33.3452 188.354 33.254 189.301 33.4818C190.296 33.7096 191.172 34.1425 191.93 34.7803C192.687 35.4182 193.185 36.2155 193.421 37.1723C193.658 38.0835 193.492 39.0859 192.924 40.1793C192.782 40.4983 192.569 40.9539 192.285 41.5462C192.048 42.1385 191.835 42.5941 191.646 42.913C190.888 44.6443 189.988 46.0112 188.946 47.0135C187.336 48.6081 185.418 49.7244 183.192 50.3622Z" fill="#23D703"/>
<path d="M210.893 45.92C210.845 47.4691 210.301 48.6309 209.259 49.4055C208.264 50.18 207.104 50.5673 205.778 50.5673C204.5 50.5217 203.363 50.1117 202.368 49.3371C201.421 48.517 200.948 47.3324 200.948 45.7834C200.995 44.371 200.971 37.9241 200.877 26.4426C200.829 20.2919 200.924 15.1435 201.161 10.9974C197.372 10.9974 194.176 11.0202 191.571 11.0658C189.961 11.0658 188.73 10.6101 187.877 9.69892C187.072 8.74214 186.646 7.64867 186.599 6.41852C186.599 5.14281 187.001 4.02656 187.806 3.06978C188.611 2.06743 189.819 1.54348 191.429 1.49792C192.613 1.49792 194.176 1.49792 196.117 1.49792C198.106 1.45236 200.261 1.42958 202.582 1.42958C204.949 1.38402 207.294 1.36124 209.614 1.36124C211.982 1.36124 214.137 1.36124 216.078 1.36124C218.067 1.36124 219.654 1.36124 220.837 1.36124C222.163 1.36124 223.205 1.68016 223.963 2.31802C224.768 2.95587 225.313 3.75319 225.597 4.70998C225.881 5.66676 225.905 6.62355 225.668 7.58033C225.431 8.53711 224.934 9.33443 224.176 9.97229C223.418 10.6101 222.4 10.9291 221.122 10.9291C218.138 10.9291 214.8 10.9519 211.106 10.9974C210.869 14.9612 210.774 20.0869 210.822 26.3743C210.916 37.9924 210.94 44.5076 210.893 45.92Z" fill="#E10303"/>
<path d="M231.107 51.114C226.987 50.3395 223.767 48.517 221.446 45.6467C219.078 42.7763 217.658 39.4959 217.184 35.8055C216.9 33.5274 216.971 31.2266 217.397 28.9029C217.871 26.5793 218.676 24.3924 219.812 22.3421C220.996 20.2919 222.512 18.515 224.359 17.0115C225.448 16.1003 226.845 15.3941 228.55 14.8929C228.597 14.8929 229.094 14.7562 230.041 14.4828C230.42 14.3917 230.705 14.3006 230.894 14.2095C232.22 13.7083 233.546 13.7539 234.872 14.3462C239.323 15.0296 242.307 15.7358 243.822 16.4648C245.953 17.4671 247.682 18.9934 249.008 21.0436C250.381 23.0483 251.305 25.2581 251.778 27.6728C252.299 30.0875 252.346 32.3656 251.92 34.507C251.683 36.7395 251.162 38.8808 250.357 40.9311C249.552 43.0269 248.321 45.0088 246.664 46.8768C245.006 48.7448 243.065 50.0661 240.839 50.8406C238.139 51.7519 234.896 51.843 231.107 51.114ZM232.954 41.8195C234.99 42.184 236.529 42.184 237.571 41.8195C238.566 41.455 239.394 40.7261 240.057 39.6326C240.768 38.5391 241.289 37.2634 241.62 35.8055C241.999 34.3019 242.165 32.8212 242.117 31.3632C242.117 29.8597 241.904 28.5385 241.478 27.3994C241.052 26.2604 240.413 25.4859 239.56 25.0758C238.613 24.6658 237.571 24.4152 236.435 24.3241C235.345 24.1874 234.114 23.9596 232.741 23.6406C231.936 23.8684 231.51 23.9823 231.462 23.9823L230.752 24.2557C229.426 25.3492 228.408 26.8527 227.697 28.7663C226.987 30.6798 226.774 32.6617 227.058 34.712C227.532 38.7669 229.497 41.1361 232.954 41.8195Z" fill="#E10303"/>
<path d="M276.378 51.2507C272.59 51.2507 269.275 50.4762 266.433 48.9271C263.592 47.378 261.414 45.305 259.898 42.708C258.43 40.111 257.696 37.2406 257.696 34.0969C257.696 30.1331 258.454 26.6932 259.969 23.7773C261.485 20.907 263.663 18.6289 266.505 16.9431C269.346 15.2574 272.566 14.4145 276.165 14.4145C279.859 14.4145 283.032 15.1435 285.684 16.6014C288.288 18.0594 290.254 20.0413 291.58 22.5472C292.906 25.0075 293.569 27.7639 293.569 30.8165C293.569 32.3656 293.048 33.573 292.006 34.4386C290.964 35.3043 289.567 35.8055 287.815 35.9421C284.263 36.2611 281.114 36.4205 278.367 36.4205C275.763 36.4205 272.969 36.3522 269.985 36.2155L267.499 36.1472C267.783 38.3797 268.683 40.1338 270.198 41.4095C271.761 42.6396 274.105 43.2091 277.231 43.118C278.651 43.0725 279.788 42.913 280.64 42.6396C281.493 42.3207 282.251 41.8651 282.914 41.2728C283.624 40.5894 284.287 40.0199 284.902 39.5643C285.518 39.0631 286.371 38.8125 287.46 38.8125C288.691 38.8125 289.709 39.2225 290.514 40.0426C291.367 40.8172 291.793 41.7284 291.793 42.7763C291.793 44.2343 291.035 45.6239 289.52 46.9452C288.004 48.2664 286.039 49.3143 283.624 50.0889C281.256 50.8634 278.841 51.2507 276.378 51.2507ZM267.641 29.1763C270.435 29.5408 273.537 29.6775 276.947 29.5864C280.214 29.5408 282.606 29.3358 284.121 28.9713C284.026 27.0122 283.411 25.4403 282.274 24.2557C281.185 23.0711 279.196 22.5016 276.307 22.5472C273.892 22.5927 271.927 23.1167 270.411 24.119C268.896 25.1214 267.973 26.8071 267.641 29.1763Z" fill="#E10303"/>
</svg>
