<svg width="256" height="64" viewBox="0 0 256 64" fill="none" xmlns="http://www.w3.org/2000/svg">
<path d="M22.1251 49.0609C22.0839 50.4079 21.6104 51.4182 20.7044 52.0917C19.8396 52.7652 18.8307 53.102 17.6777 53.102C16.5659 53.0624 15.5776 52.7058 14.7128 52.0323C13.8892 51.3192 13.4774 50.2891 13.4774 48.942C13.5186 47.7139 13.498 42.1079 13.4156 32.124C13.3745 26.7756 13.4568 22.2987 13.6627 18.6934C10.3683 18.6934 7.58873 18.7132 5.32385 18.7528C3.92375 18.7528 2.85308 18.3566 2.11185 17.5643C1.4118 16.7323 1.04118 15.7815 1 14.7118C1 13.6024 1.35003 12.6318 2.05008 11.7998C2.75013 10.9282 3.80021 10.4726 5.20031 10.433C6.2298 10.433 7.58873 10.433 9.27709 10.433C11.0066 10.3934 12.8803 10.3735 14.8981 10.3735C16.9571 10.3339 18.9955 10.3141 21.0133 10.3141C23.0722 10.3141 24.9459 10.3141 26.6343 10.3141C28.3638 10.3141 29.7433 10.3141 30.7728 10.3141C31.9258 10.3141 32.8318 10.5914 33.4907 11.1461C34.1907 11.7008 34.6643 12.3941 34.9113 13.2261C35.1584 14.0581 35.179 14.89 34.9731 15.722C34.7672 16.554 34.3348 17.2473 33.676 17.802C33.0171 18.3567 32.1317 18.634 31.0199 18.634C28.4256 18.634 25.5224 18.6538 22.3104 18.6934C22.1045 22.1402 22.0222 26.5973 22.0633 32.0646C22.1457 42.1673 22.1663 47.8327 22.1251 49.0609Z" fill="#1AFF00"/>
<path d="M36.7109 49.1203C36.5873 40.7212 36.6491 32.857 36.8962 25.5276C36.9373 24.4183 37.2462 23.5467 37.8227 22.9128C38.4404 22.2789 39.1816 21.8827 40.0464 21.7242C40.9112 21.5261 41.7759 21.5657 42.6407 21.8431C43.5055 22.0808 44.2055 22.5364 44.7409 23.2099C45.3174 23.8834 45.5851 24.7748 45.5439 25.8841C45.2968 33.2928 45.235 40.9986 45.3586 49.0015C45.3586 50.3485 44.9262 51.3786 44.0614 52.0917C43.2378 52.7652 42.2495 53.1218 41.0965 53.1614C39.9846 53.1614 38.9757 52.8247 38.0698 52.1511C37.205 51.4776 36.752 50.4674 36.7109 49.1203ZM44.0614 11.3838C44.885 12.1366 45.338 12.9685 45.4203 13.8798C45.5027 14.7514 45.3174 15.5834 44.8644 16.3757C44.4114 17.1285 43.7732 17.7426 42.9496 18.218C42.1672 18.6538 41.3024 18.8321 40.3552 18.7528C39.4493 18.6736 38.5845 18.2378 37.7609 17.4454C36.9373 16.6531 36.4844 15.8013 36.402 14.89C36.3197 13.9788 36.505 13.1468 36.9579 12.3941C37.4521 11.6413 38.0904 11.0471 38.8728 10.6113C39.6552 10.1358 40.4994 9.93774 41.4053 10.017C42.3525 10.0962 43.2378 10.5518 44.0614 11.3838Z" fill="#1AFF00"/>
<path d="M71.8648 52.9237C69.9706 53.5576 68.1175 53.7953 66.3056 53.6368C64.4937 53.4784 62.7436 53.0822 61.0552 52.4483C59.2845 51.7748 57.6785 50.7843 56.2372 49.4769C54.8371 48.1695 53.6841 46.6838 52.7781 45.0198C51.8722 43.3162 51.3368 41.5334 51.1721 39.6713C51.0074 37.3339 51.3986 34.9568 52.3457 32.54C53.334 30.0837 54.7136 27.9839 56.4843 26.2407C57.7608 24.9729 59.2021 23.9428 60.8081 23.1505C62.373 22.3977 64.1643 21.9223 66.1821 21.7242C68.1999 21.5261 70.2382 21.8629 72.2972 22.7345C73.4091 23.1703 74.5827 23.8834 75.8181 24.8739C75.9004 24.9531 76.1681 25.1908 76.6211 25.587L77.7329 26.4784C78.6389 27.1519 79.1742 27.9047 79.3389 28.7367C79.5036 29.5687 79.4007 30.361 79.0301 31.1138C78.7006 31.8665 78.1859 32.5004 77.4858 33.0155C76.7858 33.5305 75.9828 33.8078 75.0768 33.8474C74.2121 33.8474 73.3267 33.5107 72.4208 32.8372C72.3384 32.7976 71.556 32.1637 70.0735 30.9355C69.5794 30.5393 69.2087 30.2818 68.9617 30.1629C66.738 29.2913 64.679 29.8262 62.7847 31.7675C61.7964 32.7579 61.014 33.9267 60.4375 35.2737C59.9022 36.6207 59.6963 37.8885 59.8198 39.0771C59.9022 40.1864 60.3551 41.3353 61.1787 42.5239C62.0023 43.6728 63.0936 44.5048 64.4525 45.0198C65.8938 45.5349 67.1086 45.733 68.0969 45.6141C69.1264 45.4556 69.95 45.0793 70.5677 44.485C70.7736 44.2869 71.0207 43.8709 71.3089 43.237C72.1737 41.4146 72.6267 40.4637 72.6678 40.3845C73.2032 39.4336 73.8826 38.7997 74.7062 38.4828C75.5298 38.1262 76.3534 38.047 77.177 38.2451C78.0418 38.4432 78.8036 38.8196 79.4625 39.3742C80.1213 39.9289 80.5537 40.6222 80.7596 41.4542C80.9655 42.2465 80.8214 43.1181 80.3272 44.069C80.2037 44.3463 80.0184 44.7425 79.7713 45.2575C79.5654 45.7726 79.3801 46.1688 79.2154 46.4461C78.5565 47.9516 77.7741 49.1401 76.8681 50.0117C75.468 51.3984 73.8003 52.369 71.8648 52.9237Z" fill="#1AFF00"/>
<path d="M96.0616 49.0609C96.0204 50.4079 95.5468 51.4182 94.6409 52.0917C93.7761 52.7652 92.7672 53.102 91.6142 53.102C90.5023 53.0624 89.514 52.7058 88.6492 52.0323C87.8256 51.3192 87.4138 50.2891 87.4138 48.942C87.455 47.7139 87.4344 42.1079 87.3521 32.124C87.3109 26.7756 87.3933 22.2987 87.5992 18.6934C84.3048 18.6934 81.5252 18.7132 79.2603 18.7528C77.8602 18.7528 76.7895 18.3566 76.0483 17.5643C75.3482 16.7323 74.9776 15.7815 74.9364 14.7118C74.9364 13.6024 75.2865 12.6318 75.9865 11.7998C76.6866 10.9282 77.7367 10.4726 79.1368 10.433C80.1662 10.433 81.5252 10.433 83.2135 10.433C84.9431 10.3934 86.8167 10.3735 88.8345 10.3735C90.8935 10.3339 92.9319 10.3141 94.9497 10.3141C97.0087 10.3141 98.8823 10.3141 100.571 10.3141C102.3 10.3141 103.68 10.3141 104.709 10.3141C105.862 10.3141 106.768 10.5914 107.427 11.1461C108.127 11.7008 108.601 12.3941 108.848 13.2261C109.095 14.0581 109.115 14.89 108.91 15.722C108.704 16.554 108.271 17.2473 107.612 17.802C106.954 18.3567 106.068 18.634 104.956 18.634C102.362 18.634 99.4589 18.6538 96.2469 18.6934C96.041 22.1402 95.9586 26.5973 95.9998 32.0646C96.0821 42.1673 96.1027 47.8327 96.0616 49.0609Z" fill="#FF00DD"/>
<path d="M115.83 53.2208C114.348 53.2208 112.742 52.9435 111.012 52.3889C108.871 51.5965 107.08 50.4277 105.638 48.8826C104.238 47.2979 103.374 45.5745 103.044 43.7124C102.797 42.4843 102.673 41.2957 102.673 40.1468C102.673 37.4923 103.209 34.9964 104.279 32.6589C105.762 29.3706 107.842 26.7161 110.518 24.6956C113.195 22.6751 116.242 21.6648 119.66 21.6648C120.895 21.6648 122.234 21.8233 123.675 22.1402C124.622 22.3779 125.549 22.7939 126.455 23.3882H126.764L127.381 23.3288C128.411 23.3288 129.317 23.6853 130.099 24.3985C130.923 25.1116 131.396 25.9832 131.52 27.0133L131.952 31.1138C132.034 32.857 132.137 35.8284 132.261 40.0279L132.385 43.237C132.467 45.2179 132.529 46.5055 132.57 47.0998C132.57 47.7337 132.529 48.328 132.446 48.8826C132.282 50.0316 131.829 51.022 131.087 51.854C130.387 52.6464 129.461 53.0624 128.308 53.102C127.361 53.1416 126.496 52.9237 125.713 52.4483C124.972 51.9332 124.437 51.022 124.107 49.7146C123.16 50.8239 122.007 51.6361 120.648 52.1511C119.042 52.785 117.436 53.1416 115.83 53.2208ZM115.892 44.8415C117.127 44.8415 118.404 44.4652 119.722 43.7124C120.051 43.5143 120.422 43.2172 120.834 42.821L121.76 41.989L122.81 40.5628C123.057 40.2854 123.346 40.0873 123.675 39.9685C123.675 36.6405 123.572 33.8276 123.366 31.5298L122.748 31.1138L121.884 30.4601L121.328 30.1035C120.669 29.945 120.154 29.8658 119.784 29.8658C118.301 29.8658 116.86 30.4205 115.46 31.5298C114.101 32.6391 113.01 34.1842 112.186 36.1651C111.527 37.7102 111.198 39.0969 111.198 40.325C111.198 42.4644 112.186 43.8709 114.163 44.5444C114.78 44.7425 115.357 44.8415 115.892 44.8415Z" fill="#FF00DD"/>
<path d="M159.021 52.9237C157.126 53.5576 155.273 53.7953 153.461 53.6368C151.649 53.4784 149.899 53.0822 148.211 52.4483C146.44 51.7748 144.834 50.7843 143.393 49.4769C141.993 48.1695 140.84 46.6838 139.934 45.0198C139.028 43.3162 138.493 41.5334 138.328 39.6713C138.163 37.3339 138.554 34.9568 139.501 32.54C140.49 30.0837 141.869 27.9839 143.64 26.2407C144.917 24.9729 146.358 23.9428 147.964 23.1505C149.529 22.3977 151.32 21.9223 153.338 21.7242C155.356 21.5261 157.394 21.8629 159.453 22.7345C160.565 23.1703 161.738 23.8834 162.974 24.8739C163.056 24.9531 163.324 25.1908 163.777 25.587L164.889 26.4784C165.795 27.1519 166.33 27.9047 166.495 28.7367C166.659 29.5687 166.556 30.361 166.186 31.1138C165.856 31.8665 165.342 32.5004 164.642 33.0155C163.942 33.5305 163.139 33.8078 162.233 33.8474C161.368 33.8474 160.482 33.5107 159.577 32.8372C159.494 32.7976 158.712 32.1637 157.229 30.9355C156.735 30.5393 156.365 30.2818 156.117 30.1629C153.894 29.2913 151.835 29.8262 149.941 31.7675C148.952 32.7579 148.17 33.9267 147.593 35.2737C147.058 36.6207 146.852 37.8885 146.976 39.0771C147.058 40.1864 147.511 41.3353 148.335 42.5239C149.158 43.6728 150.249 44.5048 151.608 45.0198C153.05 45.5349 154.264 45.733 155.253 45.6141C156.282 45.4556 157.106 45.0793 157.723 44.485C157.929 44.2869 158.176 43.8709 158.465 43.237C159.329 41.4146 159.782 40.4637 159.824 40.3845C160.359 39.4336 161.038 38.7997 161.862 38.4828C162.686 38.1262 163.509 38.047 164.333 38.2451C165.198 38.4432 165.959 38.8196 166.618 39.3742C167.277 39.9289 167.709 40.6222 167.915 41.4542C168.121 42.2465 167.977 43.1181 167.483 44.069C167.359 44.3463 167.174 44.7425 166.927 45.2575C166.721 45.7726 166.536 46.1688 166.371 46.4461C165.712 47.9516 164.93 49.1401 164.024 50.0117C162.624 51.3984 160.956 52.369 159.021 52.9237Z" fill="#FF00DD"/>
<path d="M183.108 49.0609C183.067 50.4079 182.593 51.4182 181.687 52.0917C180.822 52.7652 179.813 53.102 178.66 53.102C177.549 53.0624 176.56 52.7058 175.695 52.0323C174.872 51.3192 174.46 50.2891 174.46 48.942C174.501 47.7139 174.481 42.1079 174.398 32.124C174.357 26.7756 174.439 22.2987 174.645 18.6934C171.351 18.6934 168.571 18.7132 166.306 18.7528C164.906 18.7528 163.836 18.3566 163.094 17.5643C162.394 16.7323 162.024 15.7815 161.983 14.7118C161.983 13.6024 162.333 12.6318 163.033 11.7998C163.733 10.9282 164.783 10.4726 166.183 10.433C167.212 10.433 168.571 10.433 170.26 10.433C171.989 10.3934 173.863 10.3735 175.881 10.3735C177.94 10.3339 179.978 10.3141 181.996 10.3141C184.055 10.3141 185.929 10.3141 187.617 10.3141C189.346 10.3141 190.726 10.3141 191.755 10.3141C192.908 10.3141 193.814 10.5914 194.473 11.1461C195.173 11.7008 195.647 12.3941 195.894 13.2261C196.141 14.0581 196.162 14.89 195.956 15.722C195.75 16.554 195.317 17.2473 194.659 17.802C194 18.3567 193.114 18.634 192.003 18.634C189.408 18.634 186.505 18.6538 183.293 18.6934C183.087 22.1402 183.005 26.5973 183.046 32.0646C183.128 42.1673 183.149 47.8327 183.108 49.0609Z" fill="#00E6FF"/>
<path d="M200.685 53.5774C197.103 52.9039 194.303 51.3192 192.285 48.8232C190.226 46.3272 188.99 43.4747 188.579 40.2656C188.332 38.2847 188.393 36.284 188.764 34.2634C189.176 32.2429 189.876 30.3412 190.864 28.5584C191.894 26.7756 193.211 25.2304 194.817 23.923C195.765 23.1307 196.979 22.5166 198.462 22.0808C198.503 22.0808 198.935 21.9619 199.759 21.7242C200.088 21.645 200.335 21.5657 200.5 21.4865C201.653 21.0507 202.806 21.0903 203.959 21.6054C207.83 22.1996 210.424 22.8137 211.742 23.4476C213.595 24.3192 215.098 25.6464 216.251 27.4293C217.446 29.1725 218.249 31.094 218.66 33.1937C219.113 35.2935 219.154 37.2744 218.784 39.1365C218.578 41.0778 218.125 42.9399 217.425 44.7227C216.725 46.5451 215.654 48.2685 214.213 49.8929C212.772 51.5172 211.083 52.6662 209.148 53.3397C206.801 54.1321 203.98 54.2113 200.685 53.5774ZM202.291 45.4952C204.062 45.8122 205.401 45.8122 206.306 45.4952C207.171 45.1783 207.892 44.5444 208.468 43.5936C209.086 42.6427 209.539 41.5334 209.827 40.2656C210.157 38.9582 210.301 37.6706 210.26 36.4028C210.26 35.0954 210.074 33.9465 209.704 32.956C209.333 31.9656 208.777 31.2921 208.036 30.9355C207.212 30.5789 206.306 30.361 205.318 30.2818C204.371 30.1629 203.3 29.9648 202.106 29.6875C201.406 29.8856 201.036 29.9846 200.994 29.9846L200.377 30.2224C199.224 31.1732 198.338 32.4806 197.721 34.1446C197.103 35.8086 196.918 37.532 197.165 39.3148C197.576 42.8408 199.285 44.901 202.291 45.4952Z" fill="#00E6FF"/>
<path d="M240.052 53.6963C236.757 53.6963 233.875 53.0227 231.404 51.6757C228.933 50.3287 227.039 48.5261 225.721 46.2678C224.445 44.0096 223.807 41.5136 223.807 38.7799C223.807 35.3331 224.465 32.3419 225.783 29.8064C227.101 27.3104 228.995 25.3295 231.466 23.8636C233.937 22.3977 236.737 21.6648 239.867 21.6648C243.079 21.6648 245.838 22.2987 248.144 23.5665C250.408 24.8343 252.117 26.5577 253.27 28.7367C254.424 30.8761 255 33.273 255 35.9274C255 37.2744 254.547 38.3243 253.641 39.0771C252.735 39.8298 251.52 40.2656 249.997 40.3845C246.908 40.6618 244.17 40.8005 241.781 40.8005C239.516 40.8005 237.087 40.741 234.493 40.6222L232.331 40.5628C232.578 42.5041 233.36 44.0294 234.678 45.1387C236.037 46.2084 238.075 46.7036 240.793 46.6244C242.028 46.5848 243.017 46.4461 243.758 46.2084C244.499 45.931 245.158 45.5349 245.735 45.0198C246.352 44.4256 246.929 43.9303 247.464 43.5341C247.999 43.0983 248.741 42.8804 249.688 42.8804C250.759 42.8804 251.644 43.237 252.344 43.9501C253.085 44.6236 253.456 45.416 253.456 46.3272C253.456 47.595 252.797 48.8034 251.479 49.9523C250.161 51.1013 248.452 52.0125 246.352 52.686C244.293 53.3595 242.193 53.6963 240.052 53.6963ZM232.454 34.5011C234.884 34.8181 237.581 34.9369 240.546 34.8577C243.387 34.8181 245.467 34.6398 246.785 34.3229C246.702 32.6193 246.167 31.2524 245.179 30.2224C244.232 29.1923 242.502 28.697 239.99 28.7367C237.89 28.7763 236.181 29.2319 234.863 30.1035C233.545 30.9751 232.742 32.441 232.454 34.5011Z" fill="#00E6FF"/>
</svg>
