<?xml version="1.0" encoding="utf-8"?>
<!-- Generator: Adobe Illustrator 28.1.0, SVG Export Plug-In . SVG Version: 6.00 Build 0)  -->
<svg version="1.1" id="Layer_4" xmlns="http://www.w3.org/2000/svg" xmlns:xlink="http://www.w3.org/1999/xlink" x="0px" y="0px"
	 viewBox="0 0 128 128" style="enable-background:new 0 0 128 128;" xml:space="preserve">
<style type="text/css">
	.st0{fill:#FFFFFF;enable-background:new    ;}
	.st1{fill:#1D630C;}
</style>
<rect class="st0" width="128" height="128"/>
<path class="st1" d="M93.5,103.6h-2.8c1.3-1.6,2.1-3.6,2.1-5.8V77.3c0-9.4-7.7-17.1-17.1-17.1h-3.3V57c1.9-1.3,3.7-3,5-5.3
	c0.9,1.1,2.3,1.7,3.8,1.7l0,0c2.7,0,4.9-2.2,4.9-4.9V35.8c0.3-1.5,2-11.9-3.3-19c-2.3-3-5.5-5-9.6-5.9v-0.2c0-4.8-3.9-8.7-8.7-8.7
	s-8.7,3.9-8.7,8.7v0.2c-4.1,0.9-7.3,2.8-9.6,5.8c-5.4,7.1-3.7,17.6-3.4,19.1v12.6c0,2.7,2.2,4.9,4.9,4.9c1.5,0,2.9-0.7,3.8-1.7
	c1.1,2,2.5,3.5,4.1,4.7v3.8h-3.3c-9.4,0-17.1,7.7-17.1,17.1V98c0,2.1,0.8,4.1,2,5.6h-2.8c-6.2,0-11.2,5-11.2,11.2s5,11.2,11.2,11.2
	h59.1c6.2,0,11.2-5,11.2-11.2S99.7,103.6,93.5,103.6z M89.7,77.3v20.5c0,3.2-2.6,5.8-5.8,5.8H70.5c0.6-1,1-2.1,1-3.4
	c0-1.2-0.4-2.4-1-3.4h11.3c0.9,0,1.6-0.7,1.6-1.6V75.4c0-0.9-0.7-1.6-1.6-1.6s-1.6,0.7-1.6,1.6v18.3H49.1v-6.9
	c8.2-1.1,14.4-4.2,18.4-9.2c4.3-5.3,4.9-11.3,5-14.2h3.2C83.4,63.3,89.7,69.6,89.7,77.3z M60.9,100.2c0-1.9,1.7-3.4,3.7-3.4
	c2,0,3.7,1.5,3.7,3.4s-1.7,3.4-3.7,3.4l0,0C62.6,103.6,60.9,102.1,60.9,100.2z M64.4,5.1c3,0,5.4,2.4,5.6,5.3
	c-1.6-0.1-3.5-0.2-5.5-0.2s-3.9,0.1-5.6,0.2h-0.1C59,7.5,61.4,5.1,64.4,5.1z M48.6,18.6c2.3-3,5.8-4.7,10.5-5
	c1.6-0.1,3.5-0.2,5.4-0.2c2,0,3.9,0.1,5.4,0.2c4.6,0.4,8.1,2.1,10.4,5c3.8,5,3.3,12.5,2.9,15.4h-1.4v-2.7c0-0.4,0-0.7,0-1.1
	c0-1.6,0.1-3.3-1.1-4.6c-0.9-0.9-2.3-1.4-4.5-1.4H52.7c-2.1,0-3.6,0.4-4.5,1.4C47,27,47,28.7,47.1,30.3c0,0.4,0,0.7,0,1.1v2.7h-1.4
	C45.3,31.2,44.8,23.7,48.6,18.6z M52.6,45.7L52.6,45.7c0-0.1-0.1-0.2-0.1-0.3l0,0c0-0.1-0.1-0.2-0.1-0.3S52.3,45,52.3,45
	s0-0.1-0.1-0.1c0,0-0.1-0.1-0.2-0.1c0,0-0.1,0-0.1-0.1c-0.3-0.2-0.6-0.3-0.9-0.3l0,0h-0.1c-0.1,0-0.2,0-0.2,0l0,0
	c-0.1,0-0.1,0-0.2,0.1h-0.1l0,0c-0.3,0.1-0.5,0.3-0.6,0.5l0,0c0,0.1-0.1,0.1-0.1,0.2l0,0c0,0.1-0.1,0.2-0.1,0.3l0,0
	c0,0.1,0,0.2,0,0.3l0,0v2.4c0,1-0.8,1.8-1.8,1.8S46,49.2,46,48.2V37.3h2.8c0.9,0,1.6-0.7,1.6-1.6l0,0v-4.2c0-0.4,0-0.8,0-1.2
	c0-1-0.1-2,0.2-2.3c0.1-0.1,0.5-0.4,2.2-0.4h23.6c1.7,0,2.1,0.3,2.2,0.4c0.3,0.3,0.2,1.3,0.2,2.3c0,0.4,0,0.8,0,1.2v4.2
	c0,0.9,0.7,1.6,1.6,1.6H83v11.2c0,1-0.8,1.8-1.8,1.8s-1.8-0.8-1.8-1.8V46l0,0c0-0.1,0-0.1,0-0.2v-0.1l0,0c-0.1-0.3-0.2-0.5-0.4-0.7
	l0,0c-0.1-0.1-0.1-0.1-0.2-0.1c0,0,0,0-0.1-0.1s-0.2-0.1-0.3-0.1l0,0c-0.1,0-0.2-0.1-0.3-0.1l0,0c-0.1,0-0.1,0-0.2,0h-0.1l0,0
	c-0.6,0-1.2,0.4-1.4,0.9l0,0v0.1c0,0.1,0,0.1-0.1,0.2l0,0c-1.5,7.8-7.3,10.5-11.8,10.5C59.9,56.2,54.1,53.5,52.6,45.7z M38.3,98
	V77.3c0-7.7,6.3-13.9,13.9-13.9H57c0.3,0,0.6-0.1,0.9-0.3c0.4-0.3,0.7-0.8,0.7-1.3v-3.6c1.9,0.8,3.8,1.2,5.7,1.2
	c1.6,0,3.3-0.3,4.9-0.8v3.3V62v0.1c0,0.1,0.7,7.4-4.2,13.6c-3.5,4.3-8.8,7-16,8v-8.1c0-0.9-0.7-1.6-1.6-1.6c-0.9,0-1.6,0.7-1.6,1.6
	v19.8c0,0.9,0.7,1.6,1.6,1.6h11.3c-0.6,1-1,2.1-1,3.4c0,1.2,0.4,2.4,1,3.4H43.9C40.9,103.6,38.3,101.1,38.3,98z M34.5,122.9
	c-4.4,0-8.1-3.6-8.1-8.1c0-4.4,3.6-8.1,8.1-8.1c0.9,0,1.7,0.1,2.5,0.4l45.6,15.7L34.5,122.9L34.5,122.9z M93.5,122.9
	c-0.8,0-1.7-0.1-2.4-0.4l-45.6-15.7h38.4l0,0l0,0h9.6c4.4,0,8.1,3.6,8.1,8.1C101.6,119.2,98,122.9,93.5,122.9z"/>
</svg>
