<svg width="128" height="128" viewBox="0 0 128 128" fill="none" xmlns="http://www.w3.org/2000/svg">
<path fill-rule="evenodd" clip-rule="evenodd" d="M44.3008 39.6999L58.1008 12.0999C59.7008 8.89986 63.5008 7.59986 66.7008 9.19986C67.9008 9.79986 68.9008 10.8999 69.6008 12.0999L82.6008 38.6999C83.7008 40.7999 85.7008 42.2999 88.1008 42.5999L115.301 45.7999C119.001 46.2999 121.701 49.6999 121.201 53.3999C121.001 54.8999 120.301 56.2999 119.201 57.4999L97.6008 78.8999C96.7008 79.6999 96.4008 80.9999 96.5008 82.1999L100.101 111C100.701 115.1 97.7008 118.9 93.7008 119.4C92.1008 119.6 90.6008 119.3 89.2008 118.5L66.5008 106C64.9008 105.1 62.9008 105.1 61.2008 105.9L37.7008 118.1C34.4008 119.8 30.3008 118.5 28.6008 115.1C27.9008 113.9 27.7008 112.4 27.9008 111L29.8008 97.7999C30.7008 91.2999 34.7008 85.7999 40.5008 82.7999L66.7008 69.3999C67.4008 68.9999 67.6008 68.1999 67.3008 67.4999C67.0008 66.8999 66.4008 66.5999 65.8008 66.7999L33.8008 71.3999C28.9008 72.0999 23.9008 70.6999 20.1008 67.4999L9.40082 58.7999C6.30082 56.2999 5.90082 51.7999 8.30082 48.6999C9.50082 47.2999 11.1008 46.3999 12.9008 46.0999L40.2008 42.4999C42.0008 42.3999 43.5008 41.1999 44.3008 39.6999Z" fill="#FFEDB3"/>
<path fill-rule="evenodd" clip-rule="evenodd" d="M36.0019 74.0001L68.0019 69.4002C69.6019 69.1002 71.4019 69.9001 72.3019 71.5001C73.3019 73.7001 72.5019 76.2001 70.6019 77.2001L44.4019 90.7001C39.5019 93.3001 36.0019 98.1001 35.2019 103.7L33.3019 116.9L34.4019 120.2L64.0019 104.6L89.4019 119.1H97.1019L99.6019 114.6L96.6019 80.6001L120.202 55.6001C119.602 54.8001 118.602 54.3001 117.602 54.1001L90.4019 50.9002C87.1019 50.5002 84.2019 48.4001 82.8019 45.5001L69.8019 18.9001C69.4019 18.2001 68.8019 17.6001 68.2019 17.2001C67.3019 16.7001 66.4019 16.7001 65.5019 17.0001C64.6019 17.3001 63.9019 18.0001 63.4019 18.8001L49.5019 46.4001C48.2019 48.8001 45.9019 50.5001 43.3019 50.7001L16.0019 54.3001C14.9019 54.4001 13.9019 55.0002 13.1019 55.9002C11.7019 57.7002 12.0019 60.5001 13.8019 62.0001L24.5019 70.7001C27.7019 73.4001 31.9019 74.5001 36.0019 74.0001Z" fill="url(#paint0_linear_1861_12477)"/>
<path d="M92.8019 122.3C91.1019 122.3 89.4019 121.9 87.9019 121L65.2019 108.5C64.4019 108.1 63.4019 108 62.5019 108.5L39.0019 120.7C36.7019 121.9 34.1019 122.1 31.7019 121.3C29.3019 120.5 27.3019 118.8 26.2019 116.5C25.3019 114.9 25.0019 112.9 25.2019 110.8L27.0019 97.4999C28.1019 90.1999 32.6019 83.7999 39.1019 80.3999L58.1019 70.6999L34.1019 74.1999C28.4019 74.9999 22.6019 73.3999 18.3019 69.6999L7.6019 60.8999C3.4019 57.4999 2.8019 51.1999 6.1019 46.8999C7.8019 44.8999 10.1019 43.5999 12.5019 43.2999L39.9019 39.6999C40.7019 39.5999 41.4019 39.0999 41.8019 38.2999L55.6019 10.6999C56.7019 8.49988 58.6019 6.79988 60.9019 6.09988C63.2019 5.29988 65.7019 5.49988 67.9019 6.59988C69.6019 7.49988 71.1019 8.89988 72.0019 10.7999L85.0019 37.3999C85.6019 38.6999 86.9019 39.5999 88.4019 39.7999L115.602 42.9999C120.802 43.6999 124.602 48.4999 124.002 53.6999C123.702 55.7999 122.802 57.8999 121.202 59.3999L99.6019 80.8999C99.4019 81.0999 99.2019 81.4999 99.3019 81.9999L102.802 110.7C103.202 113.4 102.402 116.1 100.702 118.3C99.0019 120.5 96.6019 121.9 93.9019 122.2C93.6019 122.2 93.2019 122.3 92.8019 122.3ZM63.7019 102.6C65.1019 102.6 66.5019 102.9 67.7019 103.6L90.4019 116.1C91.3019 116.6 92.2019 116.7 93.2019 116.7C94.4019 116.5 95.5019 115.9 96.3019 114.9C97.1019 113.9 97.4019 112.6 97.2019 111.4L93.6019 82.5999C93.4019 80.2999 94.1019 78.2999 95.6019 76.8999L117.102 55.5999C117.802 54.8999 118.202 54.0999 118.302 53.1999C118.602 50.9999 117.002 48.9999 114.802 48.6999L87.6019 45.4999C84.4019 44.9999 81.5019 42.9999 80.1019 39.9999L67.1019 13.3999C66.7019 12.6999 66.1019 12.0999 65.5019 11.6999C64.6019 11.1999 63.7019 11.1999 62.8019 11.4999C61.9019 11.7999 61.2019 12.4999 60.7019 13.2999L46.8019 40.9999C45.5019 43.3999 43.2019 45.0999 40.6019 45.2999L13.3019 48.8999C12.2019 48.9999 11.2019 49.5999 10.4019 50.4999C9.0019 52.2999 9.3019 55.0999 11.1019 56.5999L21.8019 65.2999C25.0019 67.9999 29.2019 69.0999 33.3019 68.5999L65.3019 63.9999C66.9019 63.6999 68.7019 64.4999 69.6019 66.0999C70.6019 68.2999 69.8019 70.7999 67.9019 71.7999L41.7019 85.2999C36.8019 87.8999 33.3019 92.6999 32.5019 98.2999L30.6019 111.5C30.5019 112.3 30.6019 113.2 31.0019 113.8C31.5019 114.9 32.3019 115.6 33.3019 115.9C34.3019 116.2 35.4019 116.1 36.3019 115.7L59.8019 103.5C61.1019 102.9 62.4019 102.6 63.7019 102.6Z" fill="url(#paint1_linear_1861_12477)"/>
<defs>
<linearGradient id="paint0_linear_1861_12477" x1="66.1789" y1="18.8606" x2="66.1789" y2="112.622" gradientUnits="userSpaceOnUse">
<stop stop-color="#FFD951"/>
<stop offset="1" stop-color="#FFB222"/>
</linearGradient>
<linearGradient id="paint1_linear_1861_12477" x1="64.0235" y1="33.1578" x2="64.0235" y2="94.6954" gradientUnits="userSpaceOnUse">
<stop stop-color="#E58F0D"/>
<stop offset="0.9996" stop-color="#EB7915"/>
</linearGradient>
</defs>
</svg>
