<svg width="128" height="25" viewBox="0 0 128 25" fill="none" xmlns="http://www.w3.org/2000/svg">
<path d="M11.4794 21.5305C11.459 22.204 11.224 22.7091 10.7746 23.0459C10.3456 23.3826 9.84517 23.551 9.2732 23.551C8.72165 23.5312 8.23139 23.3529 7.80241 23.0161C7.39385 22.6596 7.18958 22.1445 7.18958 21.471C7.21 20.8569 7.19979 18.0539 7.15894 13.062C7.13851 10.3878 7.17936 8.14934 7.2815 6.3467C5.64729 6.3467 4.26842 6.35661 3.1449 6.37642C2.45036 6.37642 1.91924 6.17832 1.55155 5.78214C1.20428 5.36615 1.02043 4.89073 1 4.35588C1 3.80122 1.17363 3.3159 1.5209 2.8999C1.86817 2.4641 2.38908 2.23629 3.08362 2.21649C3.59431 2.21649 4.26842 2.21649 5.10596 2.21649C5.96392 2.19668 6.89338 2.18677 7.89433 2.18677C8.91571 2.16696 9.92688 2.15706 10.9278 2.15706C11.9492 2.15706 12.8787 2.15706 13.7162 2.15706C14.5742 2.15706 15.2585 2.15706 15.7692 2.15706C16.3412 2.15706 16.7906 2.29572 17.1174 2.57305C17.4647 2.85038 17.6996 3.19704 17.8222 3.61303C17.9447 4.02903 17.9549 4.44502 17.8528 4.86101C17.7507 5.27701 17.5362 5.62367 17.2093 5.901C16.8825 6.17832 16.4433 6.31699 15.8918 6.31699C14.6048 6.31699 13.1647 6.32689 11.5713 6.3467C11.4692 8.0701 11.4283 10.2986 11.4487 13.0323C11.4896 18.0837 11.4998 20.9164 11.4794 21.5305Z" fill="url(#paint0_linear_1885_11950)"/>
<path d="M18.7148 21.5602C18.6536 17.3606 18.6842 13.4285 18.8068 9.76379C18.8272 9.20913 18.9804 8.77333 19.2664 8.45638C19.5728 8.13944 19.9405 7.94134 20.3695 7.86211C20.7985 7.76306 21.2274 7.78287 21.6564 7.92154C22.0854 8.04039 22.4327 8.2682 22.6982 8.60495C22.9842 8.94171 23.117 9.38741 23.0966 9.94207C22.974 13.6464 22.9434 17.4993 23.0046 21.5007C23.0046 22.1743 22.7902 22.6893 22.3612 23.0459C21.9526 23.3826 21.4624 23.5609 20.8904 23.5807C20.3388 23.5807 19.8384 23.4123 19.389 23.0756C18.96 22.7388 18.7353 22.2337 18.7148 21.5602ZM22.3612 2.69191C22.7697 3.06828 22.9944 3.48427 23.0353 3.93989C23.0761 4.37569 22.9842 4.79168 22.7595 5.18787C22.5348 5.56424 22.2182 5.87128 21.8096 6.10899C21.4215 6.32689 20.9925 6.41604 20.5227 6.37642C20.0733 6.3368 19.6443 6.1189 19.2357 5.72271C18.8272 5.32653 18.6025 4.90063 18.5616 4.44502C18.5208 3.98941 18.6127 3.57342 18.8374 3.19704C19.0825 2.82067 19.3992 2.52353 19.7873 2.30563C20.1754 2.06792 20.5942 1.96887 21.0436 2.00849C21.5134 2.04811 21.9526 2.27591 22.3612 2.69191Z" fill="url(#paint1_linear_1885_11950)"/>
<path d="M36.1534 23.4618C35.2138 23.7788 34.2945 23.8977 33.3957 23.8184C32.4969 23.7392 31.6287 23.5411 30.7912 23.2241C29.9128 22.8874 29.1161 22.3922 28.4011 21.7384C27.7066 21.0847 27.1346 20.3419 26.6852 19.5099C26.2358 18.6581 25.9702 17.7667 25.8885 16.8357C25.8068 15.6669 26.0009 14.4784 26.4707 13.27C26.961 12.0418 27.6453 10.992 28.5237 10.1204C29.157 9.48646 29.8719 8.97142 30.6686 8.57524C31.4449 8.19886 32.3335 7.96115 33.3344 7.86211C34.3354 7.76306 35.3465 7.93144 36.3679 8.36724C36.9195 8.58514 37.5017 8.94171 38.1145 9.43694C38.1553 9.47656 38.2881 9.59541 38.5128 9.7935L39.0644 10.2392C39.5138 10.576 39.7793 10.9523 39.861 11.3683C39.9428 11.7843 39.8917 12.1805 39.7078 12.5569C39.5444 12.9333 39.2891 13.2502 38.9418 13.5077C38.5945 13.7652 38.1962 13.9039 37.7468 13.9237C37.3178 13.9237 36.8786 13.7553 36.4292 13.4186C36.3883 13.3988 36.0002 13.0818 35.2648 12.4677C35.0197 12.2697 34.8358 12.1409 34.7133 12.0815C33.6102 11.6457 32.5888 11.9131 31.6491 12.8837C31.1589 13.379 30.7707 13.9633 30.4848 14.6369C30.2192 15.3104 30.1171 15.9443 30.1783 16.5385C30.2192 17.0932 30.4439 17.6677 30.8524 18.2619C31.261 18.8364 31.8023 19.2524 32.4764 19.5099C33.1914 19.7674 33.794 19.8665 34.2843 19.8071C34.795 19.7278 35.2035 19.5396 35.51 19.2425C35.6121 19.1434 35.7347 18.9354 35.8777 18.6185C36.3066 17.7073 36.5313 17.2319 36.5518 17.1922C36.8173 16.7168 37.1544 16.3999 37.5629 16.2414C37.9715 16.0631 38.38 16.0235 38.7886 16.1225C39.2176 16.2216 39.5955 16.4098 39.9223 16.6871C40.2492 16.9644 40.4637 17.3111 40.5658 17.7271C40.6679 18.1233 40.5964 18.5591 40.3513 19.0345C40.29 19.1732 40.1981 19.3712 40.0755 19.6288C39.9734 19.8863 39.8815 20.0844 39.7998 20.223C39.4729 20.9758 39.0848 21.5701 38.6354 22.0059C37.9408 22.6992 37.1135 23.1845 36.1534 23.4618Z" fill="url(#paint2_linear_1885_11950)"/>
<path d="M48.1565 21.5305C48.1361 22.204 47.9012 22.7091 47.4518 23.0459C47.0228 23.3826 46.5223 23.551 45.9503 23.551C45.3988 23.5312 44.9085 23.3529 44.4795 23.0161C44.071 22.6596 43.8667 22.1445 43.8667 21.471C43.8871 20.8569 43.8769 18.0539 43.8361 13.062C43.8156 10.3878 43.8565 8.14934 43.9586 6.3467C42.3244 6.3467 40.9456 6.35661 39.822 6.37642C39.1275 6.37642 38.5964 6.17832 38.2287 5.78214C37.8814 5.36615 37.6976 4.89073 37.6771 4.35588C37.6771 3.80122 37.8508 3.3159 38.198 2.8999C38.5453 2.4641 39.0662 2.23629 39.7608 2.21649C40.2714 2.21649 40.9456 2.21649 41.7831 2.21649C42.6411 2.19668 43.5705 2.18677 44.5715 2.18677C45.5929 2.16696 46.604 2.15706 47.605 2.15706C48.6264 2.15706 49.5558 2.15706 50.3933 2.15706C51.2513 2.15706 51.9356 2.15706 52.4463 2.15706C53.0183 2.15706 53.4677 2.29572 53.7946 2.57305C54.1418 2.85038 54.3767 3.19704 54.4993 3.61303C54.6219 4.02903 54.6321 4.44502 54.5299 4.86101C54.4278 5.27701 54.2133 5.62367 53.8865 5.901C53.5596 6.17832 53.1204 6.31699 52.5689 6.31699C51.282 6.31699 49.8418 6.32689 48.2484 6.3467C48.1463 8.0701 48.1055 10.2986 48.1259 13.0323C48.1667 18.0837 48.177 20.9164 48.1565 21.5305Z" fill="url(#paint3_linear_1885_11950)"/>
<path d="M57.9631 23.6104C57.2277 23.6104 56.431 23.4718 55.5731 23.1944C54.5108 22.7982 53.6222 22.2139 52.9072 21.4413C52.2127 20.6489 51.7837 19.7872 51.6203 18.8562C51.4977 18.2421 51.4365 17.6478 51.4365 17.0734C51.4365 15.7462 51.702 14.4982 52.2331 13.3294C52.9685 11.6853 54.0001 10.3581 55.3279 9.3478C56.6557 8.33753 58.1674 7.83239 59.8629 7.83239C60.4757 7.83239 61.1396 7.91163 61.8546 8.0701C62.3244 8.18896 62.784 8.39696 63.2334 8.69409H63.3866L63.693 8.66438C64.2037 8.66438 64.6531 8.84266 65.0413 9.19923C65.4498 9.55579 65.6847 9.9916 65.746 10.5066L65.9605 12.5569C66.0014 13.4285 66.0524 14.9142 66.1137 17.014L66.175 18.6185C66.2159 19.609 66.2465 20.2528 66.2669 20.5499C66.2669 20.8668 66.2465 21.164 66.2056 21.4413C66.1239 22.0158 65.8992 22.511 65.5315 22.927C65.1843 23.3232 64.7246 23.5312 64.1527 23.551C63.6828 23.5708 63.2538 23.4619 62.8657 23.2241C62.498 22.9666 62.2325 22.511 62.069 21.8573C61.5992 22.412 61.0272 22.818 60.3531 23.0756C59.5564 23.3925 58.7598 23.5708 57.9631 23.6104ZM57.9937 19.4208C58.6066 19.4208 59.2398 19.2326 59.8935 18.8562C60.0569 18.7572 60.2408 18.6086 60.445 18.4105L60.9047 17.9945L61.4256 17.2814C61.5481 17.1427 61.6911 17.0437 61.8546 16.9842C61.8546 15.3203 61.8035 13.9138 61.7013 12.7649L61.3949 12.5569L60.966 12.23L60.6902 12.0518C60.3633 11.9725 60.108 11.9329 59.9241 11.9329C59.1887 11.9329 58.4738 12.2102 57.7792 12.7649C57.1051 13.3195 56.5638 14.0921 56.1552 15.0826C55.8284 15.8551 55.665 16.5484 55.665 17.1625C55.665 18.2322 56.1552 18.9354 57.1358 19.2722C57.4422 19.3712 57.7282 19.4208 57.9937 19.4208Z" fill="url(#paint4_linear_1885_11950)"/>
<path d="M79.3882 23.4618C78.4485 23.7788 77.5293 23.8977 76.6304 23.8184C75.7316 23.7392 74.8635 23.5411 74.0259 23.2241C73.1475 22.8874 72.3509 22.3922 71.6359 21.7384C70.9413 21.0847 70.3694 20.3419 69.92 19.5099C69.4706 18.6581 69.205 17.7667 69.1233 16.8357C69.0416 15.6669 69.2356 14.4784 69.7055 13.27C70.1957 12.0418 70.8801 10.992 71.7584 10.1204C72.3917 9.48646 73.1067 8.97142 73.9034 8.57524C74.6796 8.19886 75.5682 7.96115 76.5692 7.86211C77.5701 7.76306 78.5813 7.93144 79.6027 8.36724C80.1542 8.58514 80.7364 8.94171 81.3492 9.43694C81.3901 9.47656 81.5229 9.59541 81.7476 9.7935L82.2991 10.2392C82.7485 10.576 83.0141 10.9523 83.0958 11.3683C83.1775 11.7843 83.1264 12.1805 82.9426 12.5569C82.7792 12.9333 82.5238 13.2502 82.1766 13.5077C81.8293 13.7652 81.4309 13.9039 80.9815 13.9237C80.5525 13.9237 80.1134 13.7553 79.6639 13.4186C79.6231 13.3988 79.235 13.0818 78.4996 12.4677C78.2544 12.2697 78.0706 12.1409 77.948 12.0815C76.8449 11.6457 75.8236 11.9131 74.8839 12.8837C74.3936 13.379 74.0055 13.9633 73.7195 14.6369C73.4539 15.3104 73.3518 15.9443 73.4131 16.5385C73.4539 17.0932 73.6786 17.6677 74.0872 18.2619C74.4958 18.8364 75.0371 19.2524 75.7112 19.5099C76.4262 19.7674 77.0288 19.8665 77.519 19.8071C78.0297 19.7278 78.4383 19.5396 78.7447 19.2425C78.8468 19.1434 78.9694 18.9354 79.1124 18.6185C79.5414 17.7073 79.7661 17.2319 79.7865 17.1922C80.0521 16.7168 80.3891 16.3999 80.7977 16.2414C81.2062 16.0631 81.6148 16.0235 82.0233 16.1225C82.4523 16.2216 82.8302 16.4098 83.1571 16.6871C83.4839 16.9644 83.6984 17.3111 83.8005 17.7271C83.9027 18.1233 83.8312 18.5591 83.5861 19.0345C83.5248 19.1732 83.4328 19.3712 83.3103 19.6288C83.2081 19.8863 83.1162 20.0844 83.0345 20.223C82.7077 20.9758 82.3195 21.5701 81.8701 22.0059C81.1756 22.6992 80.3483 23.1845 79.3882 23.4618Z" fill="url(#paint5_linear_1885_11950)"/>
<path d="M91.3369 21.5305C91.3165 22.204 91.0816 22.7091 90.6322 23.0459C90.2032 23.3826 89.7027 23.551 89.1307 23.551C88.5792 23.5312 88.0889 23.3529 87.6599 23.0161C87.2514 22.6596 87.0471 22.1445 87.0471 21.471C87.0675 20.8569 87.0573 18.0539 87.0165 13.062C86.996 10.3878 87.0369 8.14934 87.139 6.3467C85.5048 6.3467 84.126 6.35661 83.0024 6.37642C82.3079 6.37642 81.7768 6.17832 81.4091 5.78214C81.0618 5.36615 80.878 4.89073 80.8575 4.35588C80.8575 3.80122 81.0312 3.3159 81.3784 2.8999C81.7257 2.4641 82.2466 2.23629 82.9412 2.21649C83.4519 2.21649 84.126 2.21649 84.9635 2.21649C85.8215 2.19668 86.7509 2.18677 87.7519 2.18677C88.7732 2.16696 89.7844 2.15706 90.7854 2.15706C91.8068 2.15706 92.7362 2.15706 93.5737 2.15706C94.4317 2.15706 95.116 2.15706 95.6267 2.15706C96.1987 2.15706 96.6481 2.29572 96.9749 2.57305C97.3222 2.85038 97.5571 3.19704 97.6797 3.61303C97.8023 4.02903 97.8125 4.44502 97.7103 4.86101C97.6082 5.27701 97.3937 5.62367 97.0669 5.901C96.74 6.17832 96.3008 6.31699 95.7493 6.31699C94.4624 6.31699 93.0222 6.32689 91.4288 6.3467C91.3267 8.0701 91.2859 10.2986 91.3063 13.0323C91.3471 18.0837 91.3573 20.9164 91.3369 21.5305Z" fill="url(#paint6_linear_1885_11950)"/>
<path d="M100.057 23.7887C98.2794 23.4519 96.8903 22.6596 95.8893 21.4116C94.868 20.1636 94.2551 18.7374 94.0509 17.1328C93.9283 16.1424 93.9589 15.142 94.1428 14.1317C94.347 13.1214 94.6943 12.1706 95.1846 11.2792C95.6953 10.3878 96.349 9.61522 97.1456 8.96152C97.6155 8.56533 98.2181 8.25829 98.9535 8.04039C98.9739 8.04039 99.1884 7.98096 99.597 7.86211C99.7604 7.82249 99.883 7.78287 99.9647 7.74325C100.537 7.52535 101.109 7.54516 101.681 7.80268C103.601 8.09982 104.888 8.40686 105.541 8.72381C106.461 9.15961 107.206 9.82322 107.778 10.7146C108.371 11.5862 108.769 12.547 108.973 13.5969C109.198 14.6468 109.218 15.6372 109.035 16.5682C108.932 17.5389 108.708 18.4699 108.36 19.3613C108.013 20.2726 107.482 21.1343 106.767 21.9464C106.052 22.7586 105.215 23.3331 104.254 23.6698C103.09 24.066 101.691 24.1056 100.057 23.7887ZM100.853 19.7476C101.732 19.9061 102.396 19.9061 102.845 19.7476C103.274 19.5891 103.631 19.2722 103.917 18.7968C104.224 18.3214 104.449 17.7667 104.592 17.1328C104.755 16.4791 104.826 15.8353 104.806 15.2014C104.806 14.5477 104.714 13.9732 104.53 13.478C104.346 12.9828 104.071 12.646 103.703 12.4677C103.294 12.2895 102.845 12.1805 102.355 12.1409C101.885 12.0815 101.354 11.9824 100.761 11.8438C100.414 11.9428 100.23 11.9923 100.21 11.9923L99.9034 12.1112C99.3314 12.5866 98.8922 13.2403 98.5858 14.0723C98.2794 14.9043 98.1875 15.766 98.31 16.6574C98.5143 18.4204 99.362 19.4505 100.853 19.7476Z" fill="url(#paint7_linear_1885_11950)"/>
<path d="M119.585 23.8481C117.951 23.8481 116.521 23.5114 115.295 22.8379C114.069 22.1643 113.13 21.263 112.476 20.1339C111.843 19.0048 111.526 17.7568 111.526 16.39C111.526 14.6666 111.853 13.171 112.507 11.9032C113.16 10.6552 114.1 9.66474 115.326 8.9318C116.551 8.19886 117.94 7.83239 119.493 7.83239C121.086 7.83239 122.455 8.14934 123.599 8.78323C124.722 9.41713 125.57 10.2788 126.142 11.3683C126.714 12.438 127 13.6365 127 14.9637C127 15.6372 126.775 16.1622 126.326 16.5385C125.876 16.9149 125.274 17.1328 124.518 17.1922C122.986 17.3309 121.628 17.4002 120.443 17.4002C119.319 17.4002 118.114 17.3705 116.827 17.3111L115.755 17.2814C115.877 18.252 116.265 19.0147 116.919 19.5693C117.593 20.1042 118.604 20.3518 119.952 20.3122C120.565 20.2924 121.056 20.223 121.423 20.1042C121.791 19.9655 122.118 19.7674 122.404 19.5099C122.71 19.2128 122.996 18.9652 123.262 18.7671C123.527 18.5492 123.895 18.4402 124.365 18.4402C124.896 18.4402 125.335 18.6185 125.682 18.9751C126.05 19.3118 126.234 19.708 126.234 20.1636C126.234 20.7975 125.907 21.4017 125.253 21.9762C124.6 22.5506 123.752 23.0062 122.71 23.343C121.689 23.6798 120.647 23.8481 119.585 23.8481ZM115.816 14.2506C117.021 14.409 118.359 14.4685 119.83 14.4289C121.239 14.409 122.271 14.3199 122.925 14.1614C122.884 13.3096 122.618 12.6262 122.128 12.1112C121.658 11.5961 120.8 11.3485 119.554 11.3683C118.512 11.3881 117.665 11.6159 117.011 12.0518C116.357 12.4876 115.959 13.2205 115.816 14.2506Z" fill="url(#paint8_linear_1885_11950)"/>
<defs>
<linearGradient id="paint0_linear_1885_11950" x1="113.596" y1="2" x2="19.6497" y2="23.2041" gradientUnits="userSpaceOnUse">
<stop stop-color="#E10303"/>
<stop offset="0.5" stop-color="#37C300"/>
<stop offset="1" stop-color="#3505D2"/>
</linearGradient>
<linearGradient id="paint1_linear_1885_11950" x1="113.596" y1="2" x2="19.6497" y2="23.2041" gradientUnits="userSpaceOnUse">
<stop stop-color="#E10303"/>
<stop offset="0.5" stop-color="#37C300"/>
<stop offset="1" stop-color="#3505D2"/>
</linearGradient>
<linearGradient id="paint2_linear_1885_11950" x1="113.596" y1="2" x2="19.6497" y2="23.2041" gradientUnits="userSpaceOnUse">
<stop stop-color="#E10303"/>
<stop offset="0.5" stop-color="#37C300"/>
<stop offset="1" stop-color="#3505D2"/>
</linearGradient>
<linearGradient id="paint3_linear_1885_11950" x1="113.596" y1="2" x2="19.6497" y2="23.2041" gradientUnits="userSpaceOnUse">
<stop stop-color="#E10303"/>
<stop offset="0.5" stop-color="#37C300"/>
<stop offset="1" stop-color="#3505D2"/>
</linearGradient>
<linearGradient id="paint4_linear_1885_11950" x1="113.596" y1="2" x2="19.6497" y2="23.2041" gradientUnits="userSpaceOnUse">
<stop stop-color="#E10303"/>
<stop offset="0.5" stop-color="#37C300"/>
<stop offset="1" stop-color="#3505D2"/>
</linearGradient>
<linearGradient id="paint5_linear_1885_11950" x1="113.596" y1="2" x2="19.6497" y2="23.2041" gradientUnits="userSpaceOnUse">
<stop stop-color="#E10303"/>
<stop offset="0.5" stop-color="#37C300"/>
<stop offset="1" stop-color="#3505D2"/>
</linearGradient>
<linearGradient id="paint6_linear_1885_11950" x1="113.596" y1="2" x2="19.6497" y2="23.2041" gradientUnits="userSpaceOnUse">
<stop stop-color="#E10303"/>
<stop offset="0.5" stop-color="#37C300"/>
<stop offset="1" stop-color="#3505D2"/>
</linearGradient>
<linearGradient id="paint7_linear_1885_11950" x1="113.596" y1="2" x2="19.6497" y2="23.2041" gradientUnits="userSpaceOnUse">
<stop stop-color="#E10303"/>
<stop offset="0.5" stop-color="#37C300"/>
<stop offset="1" stop-color="#3505D2"/>
</linearGradient>
<linearGradient id="paint8_linear_1885_11950" x1="113.596" y1="2" x2="19.6497" y2="23.2041" gradientUnits="userSpaceOnUse">
<stop stop-color="#E10303"/>
<stop offset="0.5" stop-color="#37C300"/>
<stop offset="1" stop-color="#3505D2"/>
</linearGradient>
</defs>
</svg>
